<svg xmlns="http://www.w3.org/2000/svg" version="1.1" xmlns:xlink="http://www.w3.org/1999/xlink" width="210" height="210"><svg xmlns="http://www.w3.org/2000/svg" version="1.1" xmlns:xlink="http://www.w3.org/1999/xlink" xmlns:svgjs="http://svgjs.dev/svgjs" width="210" height="210"><svg width="210" height="210" viewBox="0 0 210 210" fill="none" xmlns="http://www.w3.org/2000/svg">
<path d="M0 29C0 12.9837 12.9837 0 29 0H181C197.016 0 210 12.9837 210 29V181C210 197.016 197.016 210 181 210H29C12.9837 210 0 197.016 0 181V29Z" fill="#0157DA"></path>
<path d="M20 80H60.3302V88.7143H29.9057V98.1429H46.816C56.3679 98.1429 65 104.857 65 114C65 123.643 56.7925 130 46.816 130H20V80ZM55.0943 114C55.0943 110.143 51.6274 107 46.816 107H29.9057V121.214H46.816C51.6981 121.214 55.0943 118.143 55.0943 114Z" fill="white"></path>
<path d="M99 130V80.0713H124.349C134.97 80.0713 143.891 87.1327 143.891 97.7603C143.891 107.817 134.474 115.449 124.349 115.449H108.913V130H99ZM133.978 97.7603C133.978 92.8388 129.872 89.2725 124.349 89.2725H108.913V106.106H124.349C129.801 106.106 133.978 102.468 133.978 97.7603Z" fill="white"></path>
<path d="M172.086 130H161.607L166.776 115.663H156.933L144.047 80H154.526L163.943 106.106H170.174L179.591 80H190L172.086 130Z" fill="white"></path>
<path d="M89 105C89 108.866 85.866 112 82 112C78.134 112 75 108.866 75 105C75 101.134 78.134 98 82 98C85.866 98 89 101.134 89 105Z" fill="white"></path>
</svg><style>@media (prefers-color-scheme: light) { :root { filter: none; } }
@media (prefers-color-scheme: dark) { :root { filter: none; } }
</style></svg><style>@media (prefers-color-scheme: light) { :root { filter: none; } }
@media (prefers-color-scheme: dark) { :root { filter: none; } }
</style></svg>