<svg width="141" height="30" fill="none" xmlns="http://www.w3.org/2000/svg"><path d="M0 12.019h11v2.37H2.702v2.564h4.612c2.605 0 4.96 1.826 4.96 4.313 0 2.623-2.239 4.352-4.96 4.352H0v-13.6zm9.572 9.247c0-1.05-.946-1.904-2.258-1.904H2.702v3.866h4.612c1.332 0 2.258-.835 2.258-1.962zm2.868 4.352l6.773-13.6h3.01l6.813 13.6h-3.01l-1.602-3.206h-7.391l-1.602 3.206H12.44zm5.828-5.692h4.901l-2.45-4.896-2.451 4.896zm11.678 5.692v-13.6h2.702v5.537h7.39V12.02h2.703v13.599h-2.702v-5.556h-7.391v5.556h-2.702zm17.929-5.557v5.557h-2.702v-13.6h2.702v5.557h1.544l5.268-5.556h3.667l-6.407 6.8 6.909 6.799h-3.764l-5.731-5.556h-1.486zM60.1 25.618v-13.6h6.908c2.895 0 5.326 1.924 5.326 4.819 0 2.739-2.567 4.817-5.326 4.817H62.8v3.964h-2.702zm9.532-8.781c0-1.34-1.119-2.312-2.624-2.312H62.8v4.585h4.207c1.486 0 2.624-.991 2.624-2.273zm4.003 2.001c0-4.1 3.165-7.11 7.41-7.11 4.227 0 7.392 2.855 7.392 7.11 0 4.196-3.165 7.071-7.391 7.071-4.227 0-7.41-3.03-7.41-7.071zm2.702 0c0 2.622 1.968 4.468 4.709 4.468 2.798 0 4.69-1.846 4.69-4.468 0-2.681-1.892-4.508-4.69-4.508-2.76 0-4.709 1.827-4.709 4.508zm17.701 6.78V14.525h-4.785v-2.506h12.235v2.506H96.74v11.093h-2.7zm15.989-23.101v3.357H138.5c.815 0 1.612.24 2.292.693a4.603 4.603 0 00-1.375-2.106 4.55 4.55 0 00-2.271-1.058l-24.22-3.37a2.48 2.48 0 00-2.02.566 2.517 2.517 0 00-.879 1.918zm-5.833 23.287a4.219 4.219 0 001.222 2.965A4.159 4.159 0 00108.36 30h28.474a4.159 4.159 0 002.944-1.231A4.219 4.219 0 00141 25.804V10.07a2.53 2.53 0 00-.733-1.78 2.491 2.491 0 00-1.767-.738h-30.14a4.159 4.159 0 00-2.944 1.23 4.219 4.219 0 00-1.222 2.966v14.055z" fill="#fff"/><path d="M113.395 25.636V12.02h6.861c2.874 0 5.288 1.925 5.288 4.824 0 2.743-2.548 4.824-5.288 4.824h-4.178v3.968h-2.683zm9.467-8.792c0-1.343-1.112-2.315-2.606-2.315h-4.178v4.59h4.178c1.475 0 2.606-.991 2.606-2.275zm10.313 8.792h-2.836l1.399-3.91h-2.664L125.587 12h2.836l2.548 7.12h1.687l2.548-7.12h2.817l-4.848 13.636zm-22.486-6.818c0 1.054-.848 1.91-1.894 1.91a1.902 1.902 0 01-1.895-1.91c0-1.054.848-1.909 1.895-1.909 1.046 0 1.894.855 1.894 1.91z" fill="#0157DA"/></svg>