<svg width="224" height="48" fill="none" xmlns="http://www.w3.org/2000/svg"><path d="M0 19.23h17.475v3.792H4.292v4.103h7.327c4.14 0 7.88 2.922 7.88 6.9 0 4.197-3.557 6.963-7.88 6.963H0V19.23zm15.206 14.796c0-1.679-1.502-3.047-3.587-3.047H4.292v6.186h7.327c2.116 0 3.587-1.337 3.587-3.14zm4.556 6.962L30.523 19.23h4.783l10.822 21.758h-4.782L38.8 35.86H27.059l-2.545 5.13h-4.752zm9.26-9.107h7.786l-3.893-7.833-3.894 7.833zm18.552 9.107V19.23h4.292v8.859h11.742v-8.86H67.9v21.76h-4.292v-8.89H51.866v8.89h-4.292zm28.483-8.89v8.89h-4.292V19.23h4.292v8.89h2.453l8.37-8.89h5.824L82.526 30.11 93.5 40.987h-5.978l-9.105-8.89h-2.361zm19.42 8.89V19.23h10.975c4.599 0 8.462 3.077 8.462 7.709 0 4.382-4.078 7.708-8.462 7.708h-6.683v6.341h-4.292zm15.145-14.05c0-2.144-1.778-3.698-4.17-3.698h-6.683v7.335h6.683c2.361 0 4.17-1.585 4.17-3.636zm6.359 3.202c0-6.558 5.028-11.376 11.773-11.376 6.714 0 11.741 4.569 11.741 11.376 0 6.714-5.027 11.315-11.741 11.315-6.715 0-11.773-4.85-11.773-11.315zm4.292 0c0 4.196 3.127 7.15 7.481 7.15 4.445 0 7.449-2.954 7.449-7.15 0-4.29-3.004-7.211-7.449-7.211-4.385 0-7.481 2.922-7.481 7.211zm28.121 10.848V23.24h-7.603v-4.01h19.437v4.01h-7.541v17.748h-4.293zm25.4-36.961V9.4h45.235c1.294 0 2.56.384 3.64 1.108a7.36 7.36 0 00-2.184-3.369 7.204 7.204 0 00-3.607-1.694L179.4.053a3.912 3.912 0 00-1.703.094 3.946 3.946 0 00-1.506.812 4.009 4.009 0 00-1.032 1.378 4.067 4.067 0 00-.365 1.69zm-9.266 37.259a6.774 6.774 0 001.942 4.744 6.58 6.58 0 004.676 1.97h45.235a6.58 6.58 0 004.677-1.97A6.774 6.774 0 00224 41.286V16.113a4.06 4.06 0 00-1.164-2.848 3.946 3.946 0 00-2.807-1.18h-47.883a6.58 6.58 0 00-4.676 1.97 6.774 6.774 0 00-1.942 4.744v22.487z" fill="#0157DA"/><path d="M180.146 41.018V19.231h10.898c4.567 0 8.403 3.081 8.403 7.719 0 4.389-4.049 7.719-8.403 7.719h-6.636v6.35h-4.262zm15.039-14.068c0-2.148-1.766-3.704-4.141-3.704h-6.636v7.346h6.636c2.344 0 4.141-1.588 4.141-3.642zm16.384 14.068h-4.506l2.222-6.256h-4.231L199.513 19.2h4.506l4.049 11.392h2.679l4.049-11.392h4.475l-7.702 21.818zM175.846 30.11c0 1.686-1.347 3.054-3.009 3.054s-3.01-1.368-3.01-3.055 1.348-3.055 3.01-3.055c1.662 0 3.009 1.368 3.009 3.055z" fill="#fff"/></svg>