<?xml version="1.0" encoding="utf-8"?><svg viewBox="0 0 91 28" xmlns="http://www.w3.org/2000/svg" xmlns:xlink="http://www.w3.org/1999/xlink"><style>:root>svg{display:none}:root>svg:target{display:block}</style><svg fill="none" viewBox="0 0 7 12" id="icon-arrow-more" xmlns="http://www.w3.org/2000/svg"><path d="M1 11l5-5-5-5" stroke="currentColor" stroke-linecap="round" stroke-linejoin="round"/></svg><svg fill="none" viewBox="0 0 12 22" id="icon-arrow-next" xmlns="http://www.w3.org/2000/svg"><path d="M1 1l10 10L1 21" stroke="currentColor" stroke-width="2" stroke-linecap="round" stroke-linejoin="round"/></svg><svg fill="none" viewBox="0 0 12 22" id="icon-arrow-prev" xmlns="http://www.w3.org/2000/svg"><path d="M11 1L1 11l10 10" stroke="currentColor" stroke-width="2" stroke-linecap="round" stroke-linejoin="round"/></svg><svg fill="none" viewBox="0 0 24 24" id="icon-calendar" xmlns="http://www.w3.org/2000/svg"><path d="M18 4H6a4 4 0 00-4 4v10a4 4 0 004 4h12a4 4 0 004-4V8a4 4 0 00-4-4zM8 2v4m8-4v4M2 10h20" stroke="currentColor" stroke-width="2" stroke-linecap="round" stroke-linejoin="round"/></svg><svg fill="none" viewBox="0 0 12 7" id="icon-caret" xmlns="http://www.w3.org/2000/svg"><path d="M1 1l5 5 5-5" stroke="currentColor" stroke-linecap="round" stroke-linejoin="round"/></svg><svg fill="none" viewBox="0 0 12 7" id="icon-caret-bold" xmlns="http://www.w3.org/2000/svg"><path d="M1 1l5 5 5-5" stroke="currentColor" stroke-width="1.5" stroke-linecap="round" stroke-linejoin="round"/></svg><svg fill="none" viewBox="0 0 17 17" id="icon-close" xmlns="http://www.w3.org/2000/svg"><path d="M1 1l15 15M1 16L16 1" stroke="currentColor" stroke-width="2" stroke-linecap="round" stroke-linejoin="round"/></svg><svg fill="none" viewBox="0 0 22 22" id="icon-done" xmlns="http://www.w3.org/2000/svg"><path fill-rule="evenodd" clip-rule="evenodd" d="M11 22C4.925 22 0 17.075 0 11S4.925 0 11 0s11 4.925 11 11-4.925 11-11 11zm-1.295-8.646L6.664 10.31 5.5 11.474l3.43 3.433a1.1 1.1 0 001.556 0l6.547-6.545-1.168-1.168-6.16 6.16z" fill="currentColor"/></svg><svg fill="none" viewBox="0 0 23 18" id="icon-email" xmlns="http://www.w3.org/2000/svg"><path d="M23 5.184v9.16c0 .934-.365 1.832-1.02 2.511a3.774 3.774 0 01-2.506 1.14l-.212.005H3.739a3.782 3.782 0 01-2.568-.999 3.623 3.623 0 01-1.164-2.45L0 14.344v-9.16l11.1 5.688a.878.878 0 00.8 0L23 5.184zM3.738 0h15.524c.927 0 1.82.336 2.508.944a3.629 3.629 0 011.212 2.345L11.5 9.174.018 3.29a3.626 3.626 0 011.134-2.275A3.778 3.778 0 013.524.005L3.737 0z" fill="currentColor"/></svg><svg fill="none" viewBox="0 0 26 20" id="icon-folder" xmlns="http://www.w3.org/2000/svg"><path d="M23.936 3.499c-.145-.55-.852-.999-1.575-.999h-8.865c-.721 0-1.73-.397-2.24-.884L10.48.881C9.97.395 8.96 0 8.24 0H4.007c-.723 0-1.378.559-1.458 1.242L2.168 5h22.03l-.262-1.501zm1.31 2.751H.754a.781.781 0 00-.558.237.72.72 0 00-.193.557L1.204 19.13a.95.95 0 00.324.62c.184.16.424.25.673.25h21.598c.249 0 .489-.09.673-.25a.95.95 0 00.324-.62l1.2-12.086a.698.698 0 00-.192-.557.754.754 0 00-.558-.237z" fill="currentColor"/></svg><svg fill="none" viewBox="0 0 22 22" id="icon-globe" xmlns="http://www.w3.org/2000/svg"><path fill-rule="evenodd" clip-rule="evenodd" d="M7.922.435a11.063 11.063 0 00-5.446 3.574A10.99 10.99 0 000 10.018h5.049A24.751 24.751 0 017.92.433l.002.002zM5.049 11.982H0a10.99 10.99 0 002.475 6.01 11.063 11.063 0 005.445 3.575 24.751 24.751 0 01-2.871-9.585zm5.402 10.004a22.722 22.722 0 01-3.424-10.004h7.944a22.722 22.722 0 01-3.424 10.004 11.08 11.08 0 01-1.096 0zm3.629-.42a11.063 11.063 0 005.444-3.575A10.99 10.99 0 0022 11.982h-5.049a24.751 24.751 0 01-2.871 9.585v-.002zm2.871-11.548H22a10.99 10.99 0 00-2.475-6.01A11.063 11.063 0 0014.08.434a24.751 24.751 0 012.871 9.585zM10.451.014c.366-.019.732-.019 1.098 0a22.723 22.723 0 013.422 10.004H7.03A22.68 22.68 0 0110.45.014z" fill="currentColor"/></svg><svg fill="none" viewBox="0 0 91 22" id="icon-globe-link" xmlns="http://www.w3.org/2000/svg"><path fill-rule="evenodd" clip-rule="evenodd" d="M7.922.435a11.063 11.063 0 00-5.446 3.574A10.99 10.99 0 000 10.018h5.049A24.751 24.751 0 017.92.433l.002.002zM5.049 11.982H0a10.99 10.99 0 002.475 6.01 11.063 11.063 0 005.445 3.575 24.751 24.751 0 01-2.871-9.585zm5.402 10.004a22.722 22.722 0 01-3.424-10.004h7.944a22.722 22.722 0 01-3.424 10.004 11.08 11.08 0 01-1.096 0zm3.629-.42a11.063 11.063 0 005.444-3.575A10.99 10.99 0 0022 11.982h-5.049a24.751 24.751 0 01-2.871 9.585v-.002zm2.871-11.548H22a10.99 10.99 0 00-2.475-6.01A11.063 11.063 0 0014.08.434a24.751 24.751 0 012.871 9.585zM10.451.014c.366-.019.732-.019 1.098 0a22.723 22.723 0 013.422 10.004H7.03A22.68 22.68 0 0110.45.014z" fill="currentColor"/><path d="M90.707 11.707a1 1 0 000-1.414l-6.364-6.364a1 1 0 10-1.414 1.414L88.586 11l-5.657 5.657a1 1 0 001.414 1.414l6.364-6.364zM34 12h56v-2H34v2z" fill="currentColor"/></svg><svg fill="none" viewBox="0 0 22 22" id="icon-google" xmlns="http://www.w3.org/2000/svg"><g clip-path="url(#mclip0_45_2297)"><path d="M21.738 11.206c0-.901-.073-1.56-.232-2.241H11.214v4.068h6.041c-.121 1.01-.78 2.533-2.24 3.556l-.021.137 3.254 2.52.225.023c2.07-1.912 3.265-4.726 3.265-8.063z" fill="#4285F4"/><path d="M11.214 21.924c2.96 0 5.444-.974 7.26-2.655l-3.46-2.68c-.926.646-2.168 1.097-3.8 1.097-2.899 0-5.36-1.913-6.236-4.556l-.129.011-3.384 2.619-.044.123c1.803 3.581 5.505 6.041 9.793 6.041z" fill="#34A853"/><path d="M4.978 13.13a6.749 6.749 0 01-.366-2.168c0-.755.134-1.486.354-2.168L4.96 8.65 1.533 5.988l-.112.053a10.972 10.972 0 00-1.169 4.921c0 1.766.426 3.435 1.17 4.921l3.556-2.753z" fill="#FBBC05"/><path d="M11.214 4.239c2.058 0 3.447.889 4.239 1.632l3.093-3.02C16.646 1.083 14.174 0 11.214 0 6.926 0 3.224 2.46 1.42 6.041l3.544 2.753c.89-2.643 3.35-4.555 6.249-4.555z" fill="#EB4335"/></g><defs><clipPath id="mclip0_45_2297"><path fill="#fff" d="M0 0h22v22H0z"/></clipPath></defs></svg><svg fill="none" viewBox="0 0 22 22" id="icon-home" xmlns="http://www.w3.org/2000/svg"><path d="M14.3 22v-5.593c0-.89-.348-1.743-.966-2.373A3.273 3.273 0 0011 13.052c-.875 0-1.715.353-2.333.982a3.385 3.385 0 00-.967 2.373V22H2.2a2.182 2.182 0 01-1.556-.655A2.257 2.257 0 010 19.763V7.606c0-.386.098-.766.286-1.102a2.22 2.22 0 01.782-.816l8.8-5.37a2.173 2.173 0 012.264 0l8.8 5.37c.326.199.595.48.782.816.188.336.286.716.286 1.102v12.157c0 .593-.232 1.162-.644 1.582-.413.42-.973.655-1.556.655h-5.5z" fill="currentColor"/></svg><svg fill="none" viewBox="0 0 22 26" id="icon-location" xmlns="http://www.w3.org/2000/svg"><path d="M13.12 25.18C16.314 22.328 22 16.502 22 11.155c0-2.959-1.159-5.796-3.222-7.888A10.923 10.923 0 0011 0a10.923 10.923 0 00-7.778 3.267A11.235 11.235 0 000 11.155c0 5.347 5.683 11.173 8.88 14.025.584.528 1.338.82 2.12.82s1.536-.292 2.12-.82zM7.332 11.155c0-.986.387-1.932 1.074-2.63A3.641 3.641 0 0111 7.438a3.64 3.64 0 012.593 1.089 3.745 3.745 0 011.074 2.629c0 .986-.387 1.932-1.074 2.63A3.64 3.64 0 0111 14.872a3.64 3.64 0 01-2.593-1.089 3.745 3.745 0 01-1.074-2.63z" fill="currentColor"/></svg><svg fill="none" viewBox="0 0 22 22" id="icon-percent" xmlns="http://www.w3.org/2000/svg"><path d="M4.813 9.625c-1.33 0-2.464-.47-3.404-1.41C.47 7.277 0 6.143 0 4.814c0-1.33.47-2.464 1.41-3.404C2.348.47 3.482 0 4.811 0c1.33 0 2.464.47 3.404 1.41.94.939 1.409 2.073 1.409 3.402 0 1.33-.47 2.464-1.41 3.404-.939.94-2.073 1.409-3.402 1.409zm0-2.75c.572 0 1.06-.2 1.461-.6.402-.401.602-.889.601-1.463 0-.573-.201-1.06-.6-1.46-.4-.4-.888-.6-1.463-.602a1.966 1.966 0 00-1.46.602c-.398.404-.6.89-.602 1.46-.003.57.198 1.058.602 1.462.405.404.891.605 1.46.601zM17.188 22c-1.33 0-2.464-.47-3.404-1.41-.94-.939-1.409-2.073-1.409-3.402 0-1.33.47-2.464 1.41-3.404.939-.94 2.073-1.409 3.402-1.409 1.33 0 2.464.47 3.404 1.41.94.939 1.409 2.073 1.409 3.402 0 1.33-.47 2.464-1.41 3.404-.939.94-2.073 1.409-3.402 1.409zm0-2.75c.572 0 1.06-.2 1.461-.6.402-.401.602-.889.601-1.462 0-.574-.201-1.061-.6-1.46-.4-.4-.888-.601-1.462-.603a1.966 1.966 0 00-1.46.602c-.4.404-.6.89-.603 1.46-.003.57.198 1.058.602 1.462.404.404.891.605 1.46.601zM.962 21.038c-.252-.253-.378-.573-.378-.963s.126-.71.379-.962L19.112.963c.252-.253.572-.379.962-.379s.71.126.963.379c.252.252.378.572.378.962s-.126.71-.378.963l-18.15 18.15c-.253.252-.573.378-.963.378s-.71-.126-.963-.378z" fill="currentColor"/></svg><svg fill="none" viewBox="0 0 28 28" id="icon-refresh" xmlns="http://www.w3.org/2000/svg"><path d="M14.092 2.625c-5.593 0-10.19 4.274-10.637 9.722H2.333a.875.875 0 00-.616 1.497l1.96 1.943a.875.875 0 001.232 0l1.96-1.943a.875.875 0 00-.616-1.497H5.212c.443-4.47 4.244-7.972 8.88-7.972a8.937 8.937 0 017.627 4.25.874.874 0 101.49-.917 10.687 10.687 0 00-9.117-5.083zm10.223 9.586a.875.875 0 00-1.23 0l-1.968 1.944a.874.874 0 00.615 1.498h1.048c-.445 4.469-4.26 7.972-8.918 7.972a8.983 8.983 0 01-7.659-4.251.876.876 0 00-1.49.919 10.733 10.733 0 009.15 5.082c5.609 0 10.225-4.27 10.674-9.722h1.13a.874.874 0 00.615-1.498l-1.967-1.944z" fill="currentColor"/></svg><svg fill="none" viewBox="0 0 24 24" id="icon-search" xmlns="http://www.w3.org/2000/svg"><path d="M16.715 16.715L23 23M10 1a9 9 0 100 18 9 9 0 000-18z" stroke="currentColor" stroke-width="2" stroke-miterlimit="10" stroke-linecap="round"/></svg><svg fill="none" viewBox="0 0 21 12" id="icon-sort" xmlns="http://www.w3.org/2000/svg"><path d="M.744 1.143a.87.87 0 00.244.606c.156.16.368.251.59.251h5c.22 0 .432-.09.589-.251a.87.87 0 00.244-.606.87.87 0 00-.244-.606.822.822 0 00-.59-.251h-5a.822.822 0 00-.589.25.87.87 0 00-.244.607zm-.244 5a.87.87 0 00.244.606c.156.16.368.251.59.251H13c.221 0 .433-.09.59-.251a.87.87 0 00.243-.606.87.87 0 00-.244-.606.822.822 0 00-.589-.251H1.333a.822.822 0 00-.589.25.87.87 0 00-.244.607zm0 5a.87.87 0 00.244.606c.156.16.368.251.59.251h18.333c.22 0 .433-.09.589-.251a.87.87 0 00.244-.606.87.87 0 00-.244-.606.822.822 0 00-.59-.251H1.334a.822.822 0 00-.589.25.87.87 0 00-.244.607z" fill="currentColor"/></svg><svg fill="none" viewBox="0 0 24 24" id="icon-time" xmlns="http://www.w3.org/2000/svg"><path d="M12 22c5.523 0 10-4.477 10-10S17.523 2 12 2 2 6.477 2 12s4.477 10 10 10z" stroke="currentColor" stroke-width="2" stroke-linejoin="round"/><path d="M12.004 6v6.005l4.24 4.24" stroke="currentColor" stroke-width="2" stroke-linecap="round" stroke-linejoin="round"/></svg><svg fill="none" viewBox="0 0 22 22" id="icon-ya" xmlns="http://www.w3.org/2000/svg"><path d="M0 11C0 4.925 4.924 0 11 0c6.074 0 11 4.925 11 11s-4.926 11-11 11C4.924 22 0 17.075 0 11z" fill="#FC3F1D"/><path d="M12.408 6.233h-1.016c-1.864 0-2.844.943-2.844 2.335 0 1.573.678 2.31 2.07 3.255l1.149.774-3.304 4.936H5.995l2.965-4.416c-1.706-1.222-2.663-2.409-2.663-4.416 0-2.517 1.755-4.235 5.083-4.235h3.303v13.055h-2.275V6.233z" fill="#fff"/></svg></svg>