<?xml version="1.0" encoding="utf-8"?><svg viewBox="0 0 91 24" xmlns="http://www.w3.org/2000/svg" xmlns:xlink="http://www.w3.org/1999/xlink"><style>:root>svg{display:none}:root>svg:target{display:block}</style><svg fill="none" viewBox="0 0 7 12" id="icon-arrow-more" xmlns="http://www.w3.org/2000/svg"><path d="M1 11l5-5-5-5" stroke="currentColor" stroke-linecap="round" stroke-linejoin="round"/></svg><svg fill="none" viewBox="0 0 12 22" id="icon-arrow-next" xmlns="http://www.w3.org/2000/svg"><path d="M1 1l10 10L1 21" stroke="currentColor" stroke-width="2" stroke-linecap="round" stroke-linejoin="round"/></svg><svg fill="none" viewBox="0 0 12 22" id="icon-arrow-prev" xmlns="http://www.w3.org/2000/svg"><path d="M11 1L1 11l10 10" stroke="currentColor" stroke-width="2" stroke-linecap="round" stroke-linejoin="round"/></svg><svg fill="none" viewBox="0 0 24 24" id="icon-calendar" xmlns="http://www.w3.org/2000/svg"><path d="M18 4H6a4 4 0 00-4 4v10a4 4 0 004 4h12a4 4 0 004-4V8a4 4 0 00-4-4zM8 2v4m8-4v4M2 10h20" stroke="currentColor" stroke-width="2" stroke-linecap="round" stroke-linejoin="round"/></svg><svg fill="none" viewBox="0 0 12 7" id="icon-caret" xmlns="http://www.w3.org/2000/svg"><path d="M1 1l5 5 5-5" stroke="currentColor" stroke-linecap="round" stroke-linejoin="round"/></svg><svg fill="none" viewBox="0 0 17 17" id="icon-close" xmlns="http://www.w3.org/2000/svg"><path d="M1 1l15 15M1 16L16 1" stroke="currentColor" stroke-width="2" stroke-linecap="round" stroke-linejoin="round"/></svg><svg fill="none" viewBox="0 0 91 22" id="icon-globe-link" xmlns="http://www.w3.org/2000/svg"><path fill-rule="evenodd" clip-rule="evenodd" d="M7.922.435a11.063 11.063 0 00-5.446 3.574A10.99 10.99 0 000 10.018h5.049A24.751 24.751 0 017.92.433l.002.002zM5.049 11.982H0a10.99 10.99 0 002.475 6.01 11.063 11.063 0 005.445 3.575 24.751 24.751 0 01-2.871-9.585zm5.402 10.004a22.722 22.722 0 01-3.424-10.004h7.944a22.722 22.722 0 01-3.424 10.004 11.08 11.08 0 01-1.096 0zm3.629-.42a11.063 11.063 0 005.444-3.575A10.99 10.99 0 0022 11.982h-5.049a24.751 24.751 0 01-2.871 9.585v-.002zm2.871-11.548H22a10.99 10.99 0 00-2.475-6.01A11.063 11.063 0 0014.08.434a24.751 24.751 0 012.871 9.585zM10.451.014c.366-.019.732-.019 1.098 0a22.723 22.723 0 013.422 10.004H7.03A22.68 22.68 0 0110.45.014z" fill="currentColor"/><path d="M90.707 11.707a1 1 0 000-1.414l-6.364-6.364a1 1 0 10-1.414 1.414L88.586 11l-5.657 5.657a1 1 0 001.414 1.414l6.364-6.364zM34 12h56v-2H34v2z" fill="currentColor"/></svg><svg fill="none" viewBox="0 0 21 12" id="icon-sort" xmlns="http://www.w3.org/2000/svg"><path d="M.744 1.143a.87.87 0 00.244.606c.156.16.368.251.59.251h5c.22 0 .432-.09.589-.251a.87.87 0 00.244-.606.87.87 0 00-.244-.606.822.822 0 00-.59-.251h-5a.822.822 0 00-.589.25.87.87 0 00-.244.607zm-.244 5a.87.87 0 00.244.606c.156.16.368.251.59.251H13c.221 0 .433-.09.59-.251a.87.87 0 00.243-.606.87.87 0 00-.244-.606.822.822 0 00-.589-.251H1.333a.822.822 0 00-.589.25.87.87 0 00-.244.607zm0 5a.87.87 0 00.244.606c.156.16.368.251.59.251h18.333c.22 0 .433-.09.589-.251a.87.87 0 00.244-.606.87.87 0 00-.244-.606.822.822 0 00-.59-.251H1.334a.822.822 0 00-.589.25.87.87 0 00-.244.607z" fill="currentColor"/></svg><svg fill="none" viewBox="0 0 24 24" id="icon-time" xmlns="http://www.w3.org/2000/svg"><path d="M12 22c5.523 0 10-4.477 10-10S17.523 2 12 2 2 6.477 2 12s4.477 10 10 10z" stroke="currentColor" stroke-width="2" stroke-linejoin="round"/><path d="M12.004 6v6.005l4.24 4.24" stroke="currentColor" stroke-width="2" stroke-linecap="round" stroke-linejoin="round"/></svg></svg>